<svg xmlns="http://www.w3.org/2000/svg" viewBox="0 0 792 612"><defs><style>.cls-1{fill:#ffbf80;}.cls-1,.cls-2,.cls-3,.cls-4,.cls-5{fill-rule:evenodd;}.cls-2{fill:#ffffbf;}.cls-3{fill:#7fffff;}.cls-4{fill:#6c6;}.cls-5{fill:#ffbfbf;}</style></defs><title>hvac-all</title><g id="HVAC-5"><g id="HATCH"><polygon class="cls-1" points="171.14 265.54 184 261.74 195.39 258.52 206.03 255.64 216.44 252.93 227.33 250.21 229.16 249.78 222.68 222.96 221.53 222.96 221.53 221.6 229.5 221.6 229.5 221.98 229.61 221.95 222.69 192.5 200.77 192.5 200.77 221.6 211.77 221.6 211.77 222.96 200.77 222.96 200.77 223.63 197.92 223.63 197.92 221.47 198.6 221.47 198.6 168.46 170.09 168.46 170.09 213.13 171.71 213.13 171.71 221.47 188.7 221.47 188.7 223.63 170.22 223.63 170.22 224.46 168.05 224.46 168.05 223.63 159.75 223.63 159.75 221.47 166.83 221.47 166.83 177.55 138.87 177.55 134.73 238.24 168.05 238.24 168.05 233.68 170.22 233.68 170.22 241.24 168.05 241.24 168.05 240.41 143.93 240.41 143.93 251.95 168.05 251.95 168.05 250.46 170.22 250.46 170.22 262.43 170.78 264.32 171.14 265.54 171.14 265.54"/></g></g><g id="HVAC-4"><g id="HATCH-2" data-name="HATCH"><path class="cls-2" d="M583.55,191.52l.68.05,1.6-20-.68-.05.25-3.07H323.25l.2,1.59-1.34.17-.23-1.76H273.43L283,209.78l43.33-6.9-2-16-4.91.63-.17-1.34,4.91-.63-.72-5.67,1.34-.17.72,5.67,43-5.49.6,4.71-.67.09,1.31,10.22.67-.09v.07l-.67.09,1.31,10.22.67-.09v.14l-.66.08,1.24,9.68.67-.09,4.79,37.53h201.7l.68-8.54-.68-.05,1.1-13.78.68.05,1.6-20-.68-.05ZM272,168.46h-53.6l.5,2.14-1.32.31-.58-2.45H200.77v22.68h21.61l-2.52-10.73,1.32-.31L231.24,223l-6.77,1.64,6,24.87,7.86-1.87.66,2.75.27,1.14,4.89-1.14,3.85-.88.14.67,7.51-1.65,2.56-.53h0l5.92-1.22,8.51-1.64,5.73-1-.13-.68.16,0,.12.68,2.64-.48,7-1.17-.12-.68.85-.14Z"/></g></g><g id="HVAC-3"><g id="HATCH-3" data-name="HATCH"><path class="cls-3" d="M567.28,340.3h29.16v-13h16.47L615,300.63l-40.32-3.23-1.1-.06,0-.68-9.74-.52,0,.68-1.15-.06V340.3h4.55Zm47.87-41,2.34-29.23L578.86,267l-.13,1.62-.68-.05-1.6,20,.68.05-.61,7.62L615,299.27Zm2.45-30.58,2.6-32.43-38.64-3.1L580.7,244l-.68-.05-1.6,20,.68.05L579,265.6l38.53,3.09Zm2.71-33.78,2.34-29.18L584,202.64l-.61,7.57-.68-.05-1.6,20,.68.05-.13,1.62,38.53,3.09Zm2.45-30.53,2-25.35H610.34V168.46H586.76l-.25,3.18-.68-.05-1.6,20,.68.05-.77,9.66,38.53,3.09Z"/></g></g><g id="HVAC-2"><g id="HATCH-4" data-name="HATCH"><path class="cls-4" d="M202.87,340.3h2.58V292.42H172.39v4.1h-1.08V316h1.08V340.3h30.48Zm278.27,0V292.38l-4.35-.23,0-.68-30.32-1.63,0,.68-4.37-.23v48.93h-1.36v-49l-3-.16,0-.68-30.32-1.63,0,.68-5.44-.29V340.3h79.16Zm5.29,0H521V294.52l-3-.16,0-.68-30.32-1.63,0,.68-5.19-.28V340.3h3.93Zm-138.74,0h38.58V300.12H380V287l-19.61-1.05,0-.68L319.84,283l0,.68-26.26-1.41v58h54.13Zm-140.45,0h29.93V293.1h-2v-.68h-9.76v.68H206.8V340.3Zm45.79,0h39.17V282.25l-6.09-.33,0-.68-30.86-1.66,0,.68H255l0-.68-9.74-.52,0,.68-6.71-.36V340.3Zm292,0h16.4V296.69l-4.4-.24,0-.68-30.32-1.63,0,.68-4.32-.23V340.3H545ZM182.15,316h-9.76v-.54h9.76V316Zm-9.76-19v-.54h9.76v.54Z"/></g></g><g id="HVAC-1"><g id="HATCH-5" data-name="HATCH"><path class="cls-5" d="M579.34,252.47H377.64l.07.59-2.15.27-.17-1.34.81-.1-4.43-34.67-41.64,5.05,1.8,14.1-5.17.79,2.64,20.7,15.87-2,.17,1.34-17.21,2.2-2.81-22-.57.09-.2-1.34,5.77-.88-4-31-43.19,6.88,7,30.27,4.67-.71.2,1.34-.54.08L297,252.39l-5.28,1.22L289.2,242.9l-.93.15-.11-.66-7,1.17-2.64.48.11.66-.15,0-.12-.65L272,245.22l-7.9,1.53-8.48,1.75-7.51,1.65.14.66-9,2.09-9.15,2.23-11.05,2.74-11.83,3.07-11.57,3.15-10.88,3.09-13.64,4-.92.28v10.38h-1.08v9.76h1.08v0h2.17v.78h33.05v-.68h19.92v.68h9.76v-.68h2V277.93l8.14.44,0,.68,9.74.52,0-.68h.27l0,.68,30.86,1.66,0-.68,33.7,1.81,0,.68,40.6,2.18,0-.68,27.2,1.46-.07,1.35-6.23-.33v11.74h6.23V340.3h13v-53.6l6.87.37,0,.68,30.32,1.63,0-.68,8.73.47,0,.68,30.32,1.63,0-.68,10.9.58,0,.68L518,293.68l0-.68,8.66.46,0,.68L557,295.78l0-.68,6.9.37,0,.68,9.74.52,0-.68,1.47.07.61-7.6.68.05,1.6-20-.68-.05.37-4.59.68.05.92-11.46Zm-208.4-47.12-.67.09,0-.13.67-.09L369.62,195l-.67.09V195l.67-.09-1.31-10.22-.67.09-.43-3.36-41.61,5.31,3.8,29.72.57,4.46,41.64-5.05-.1-.76.67-.09-1.24-9.68Z"/></g></g></svg>