<svg id="HVAC-5" xmlns="http://www.w3.org/2000/svg" viewBox="0 0 792 612"><defs><style>.cls-1{fill:#ffbf80;fill-rule:evenodd;}</style></defs><title>hvac5</title><g id="HATCH"><polygon class="cls-1" points="171.14 265.54 184 261.74 195.39 258.52 206.03 255.64 216.44 252.93 227.33 250.21 229.16 249.78 222.68 222.96 221.53 222.96 221.53 221.6 229.5 221.6 229.5 221.98 229.61 221.95 222.69 192.5 200.77 192.5 200.77 221.6 211.77 221.6 211.77 222.96 200.77 222.96 200.77 223.63 197.92 223.63 197.92 221.47 198.6 221.47 198.6 168.46 170.09 168.46 170.09 213.13 171.71 213.13 171.71 221.47 188.7 221.47 188.7 223.63 170.22 223.63 170.22 224.46 168.05 224.46 168.05 223.63 159.75 223.63 159.75 221.47 166.83 221.47 166.83 177.55 138.87 177.55 134.73 238.24 168.05 238.24 168.05 233.68 170.22 233.68 170.22 241.24 168.05 241.24 168.05 240.41 143.93 240.41 143.93 251.95 168.05 251.95 168.05 250.46 170.22 250.46 170.22 262.43 170.78 264.32 171.14 265.54 171.14 265.54"/></g></svg>