<svg id="HVAC-2" xmlns="http://www.w3.org/2000/svg" viewBox="0 0 792 612"><defs><style>.cls-1{fill:#6c6;fill-rule:evenodd;}</style></defs><title>hvac2</title><g id="HATCH"><path class="cls-1" d="M202.87,340.3h2.58V292.42H172.39v4.1h-1.08V316h1.08V340.3h30.48Zm278.27,0V292.38l-4.35-.23,0-.68-30.32-1.63,0,.68-4.37-.23v48.93h-1.36v-49l-3-.16,0-.68-30.32-1.63,0,.68-5.44-.29V340.3h79.16Zm5.29,0H521V294.52l-3-.16,0-.68-30.32-1.63,0,.68-5.19-.28V340.3h3.93Zm-138.74,0h38.58V300.12H380V287l-19.61-1.05,0-.68L319.84,283l0,.68-26.26-1.41v58h54.13Zm-140.45,0h29.93V293.1h-2v-.68h-9.76v.68H206.8V340.3Zm45.79,0h39.17V282.25l-6.09-.33,0-.68-30.86-1.66,0,.68H255l0-.68-9.74-.52,0,.68-6.71-.36V340.3Zm292,0h16.4V296.69l-4.4-.24,0-.68-30.32-1.63,0,.68-4.32-.23V340.3H545ZM182.15,316h-9.76v-.54h9.76V316Zm-9.76-19v-.54h9.76v.54Z"/></g></svg>