<svg id="HVAC-1" xmlns="http://www.w3.org/2000/svg" viewBox="0 0 792 612"><defs><style>.cls-1{fill:#ffbfbf;fill-rule:evenodd;}</style></defs><title>hvac1</title><g id="HATCH"><path class="cls-1" d="M579.34,252.47H377.64l.07.59-2.15.27-.17-1.34.81-.1-4.43-34.67-41.64,5.05,1.8,14.1-5.17.79,2.64,20.7,15.87-2,.17,1.34-17.21,2.2-2.81-22-.57.09-.2-1.34,5.77-.88-4-31-43.19,6.88,7,30.27,4.67-.71.2,1.34-.54.08L297,252.39l-5.28,1.22L289.2,242.9l-.93.15-.11-.66-7,1.17-2.64.48.11.66-.15,0-.12-.65L272,245.22l-7.9,1.53-8.48,1.75-7.51,1.65.14.66-9,2.09-9.15,2.23-11.05,2.74-11.83,3.07-11.57,3.15-10.88,3.09-13.64,4-.92.28v10.38h-1.08v9.76h1.08v0h2.17v.78h33.05v-.68h19.92v.68h9.76v-.68h2V277.93l8.14.44,0,.68,9.74.52,0-.68h.27l0,.68,30.86,1.66,0-.68,33.7,1.81,0,.68,40.6,2.18,0-.68,27.2,1.46-.07,1.35-6.23-.33v11.74h6.23V340.3h13v-53.6l6.87.37,0,.68,30.32,1.63,0-.68,8.73.47,0,.68,30.32,1.63,0-.68,10.9.58,0,.68L518,293.68l0-.68,8.66.46,0,.68L557,295.78l0-.68,6.9.37,0,.68,9.74.52,0-.68,1.47.07.61-7.6.68.05,1.6-20-.68-.05.37-4.59.68.05.92-11.46Zm-208.4-47.12-.67.09,0-.13.67-.09L369.62,195l-.67.09V195l.67-.09-1.31-10.22-.67.09-.43-3.36-41.61,5.31,3.8,29.72.57,4.46,41.64-5.05-.1-.76.67-.09-1.24-9.68Z"/></g></svg>