<svg id="HVAC-4" xmlns="http://www.w3.org/2000/svg" viewBox="0 0 792 612"><defs><style>.cls-1{fill:#ffffbf;fill-rule:evenodd;}</style></defs><title>hvac4</title><g id="HATCH"><path class="cls-1" d="M583.55,191.52l.68.05,1.6-20-.68-.05.25-3.07H323.25l.2,1.59-1.34.17-.23-1.76H273.43L283,209.78l43.33-6.9-2-16-4.91.63-.17-1.34,4.91-.63-.72-5.67,1.34-.17.72,5.67,43-5.49.6,4.71-.67.09,1.31,10.22.67-.09v.07l-.67.09,1.31,10.22.67-.09v.14l-.66.08,1.24,9.68.67-.09,4.79,37.53h201.7l.68-8.54-.68-.05,1.1-13.78.68.05,1.6-20-.68-.05ZM272,168.46h-53.6l.5,2.14-1.32.31-.58-2.45H200.77v22.68h21.61l-2.52-10.73,1.32-.31L231.24,223l-6.77,1.64,6,24.87,7.86-1.87.66,2.75.27,1.14,4.89-1.14,3.85-.88.14.67,7.51-1.65,2.56-.53h0l5.92-1.22,8.51-1.64,5.73-1-.13-.68.16,0,.12.68,2.64-.48,7-1.17-.12-.68.85-.14Z"/></g></svg>