<svg id="HVAC-3" xmlns="http://www.w3.org/2000/svg" viewBox="0 0 792 612"><defs><style>.cls-1{fill:#7fffff;fill-rule:evenodd;}</style></defs><title>hvac3</title><g id="HATCH"><path class="cls-1" d="M567.28,340.3h29.16v-13h16.47L615,300.63l-40.32-3.23-1.1-.06,0-.68-9.74-.52,0,.68-1.15-.06V340.3h4.55Zm47.87-41,2.34-29.23L578.86,267l-.13,1.62-.68-.05-1.6,20,.68.05-.61,7.62L615,299.27Zm2.45-30.58,2.6-32.43-38.64-3.1L580.7,244l-.68-.05-1.6,20,.68.05L579,265.6l38.53,3.09Zm2.71-33.78,2.34-29.18L584,202.64l-.61,7.57-.68-.05-1.6,20,.68.05-.13,1.62,38.53,3.09Zm2.45-30.53,2-25.35H610.34V168.46H586.76l-.25,3.18-.68-.05-1.6,20,.68.05-.77,9.66,38.53,3.09Z"/></g></svg>